<?xml version="1.0" encoding="utf-8"?>
<!-- Generator: Adobe Illustrator 21.0.2, SVG Export Plug-In . SVG Version: 6.00 Build 0)  -->
<svg version="1.1" id="Layer_1" xmlns="http://www.w3.org/2000/svg" xmlns:xlink="http://www.w3.org/1999/xlink" x="0px" y="0px"
	 viewBox="0 0 357 96.3" style="enable-background:new 0 0 357 96.3;" xml:space="preserve">
<style type="text/css">
	.st0{fill-rule:evenodd;clip-rule:evenodd;fill:#FFFFFF;}
	.st1{fill-rule:evenodd;clip-rule:evenodd;fill:#EF4425;}
</style>
<g>
	<polygon class="st0" points="111.7,71.9 115.8,71.9 119.1,77.3 122.5,71.9 126.6,71.9 126.6,85.9 122.7,85.9 122.7,77.9 
		119.1,83.4 119.1,83.4 115.5,77.9 115.5,85.9 111.7,85.9 111.7,71.9 	"/>
	<polygon class="st0" points="136,71.9 139.9,71.9 139.9,85.9 136,85.9 136,71.9 	"/>
	<polygon class="st0" points="149.3,71.9 152.9,71.9 158.7,79.3 158.7,71.9 162.6,71.9 162.6,85.9 159.2,85.9 153.2,78.2 
		153.2,85.9 149.3,85.9 149.3,71.9 	"/>
	<polygon class="st0" points="172,71.9 175.9,71.9 175.9,85.9 172,85.9 172,71.9 	"/>
	<path class="st0" d="M183.7,83.8l2.2-2.6c1.4,1.1,2.9,1.7,4.6,1.7c1,0,1.6-0.4,1.6-1v0c0-0.6-0.5-0.9-2.4-1.3
		c-3-0.7-5.3-1.5-5.3-4.4l0,0c0-2.6,2.1-4.5,5.4-4.5c2.4,0,4.3,0.6,5.8,1.9l-1.9,2.8c-1.3-0.9-2.7-1.4-3.9-1.4
		c-0.9,0-1.4,0.4-1.4,0.9v0c0,0.6,0.5,0.9,2.4,1.4c3.2,0.7,5.2,1.7,5.2,4.4v0c0,2.9-2.3,4.6-5.7,4.6
		C187.8,86.2,185.4,85.4,183.7,83.8L183.7,83.8z"/>
	<polygon class="st0" points="206,75.3 201.8,75.3 201.8,71.9 214.1,71.9 214.1,75.3 209.9,75.3 209.9,85.9 206,85.9 206,75.3 	"/>
	<path class="st0" d="M228.1,78.6c1.3,0,2.1-0.6,2.1-1.7l0,0c0-1.1-0.8-1.7-2.1-1.7h-2.5v3.4H228.1L228.1,78.6z M221.6,71.9h6.6
		c2.1,0,3.6,0.6,4.6,1.5c0.8,0.8,1.2,1.9,1.2,3.3v0c0,2.1-1.1,3.6-2.9,4.3l3.4,4.9H230l-2.8-4.3h0h-1.7v4.3h-3.9V71.9L221.6,71.9z"
		/>
	<polygon class="st0" points="242.8,71.9 246.7,71.9 246.7,85.9 242.8,85.9 242.8,71.9 	"/>
	<polygon class="st0" points="256.1,71.9 267.4,71.9 267.4,75.2 260,75.2 260,77.3 266.7,77.3 266.7,80.4 260,80.4 260,82.6 
		267.4,82.6 267.4,85.9 256.1,85.9 256.1,71.9 	"/>
	<path class="st0" d="M274.4,83.8l2.2-2.6c1.4,1.1,2.9,1.7,4.6,1.7c1,0,1.6-0.4,1.6-1v0c0-0.6-0.5-0.9-2.4-1.3
		c-3-0.7-5.3-1.5-5.3-4.4v0c0-2.6,2.1-4.5,5.4-4.5c2.4,0,4.3,0.6,5.8,1.9l-1.9,2.8c-1.3-0.9-2.7-1.4-3.9-1.4c-0.9,0-1.4,0.4-1.4,0.9
		v0c0,0.6,0.5,0.9,2.4,1.4c3.2,0.7,5.2,1.7,5.2,4.4l0,0c0,2.9-2.3,4.6-5.7,4.6C278.5,86.2,276.1,85.4,274.4,83.8L274.4,83.8z"/>
	<polygon class="st0" points="227.6,51.2 227.6,26.7 211.7,26.7 213.9,33.1 213.9,51.2 213.9,51.7 211.7,58.1 213.9,58.1 
		216.8,58.1 227.6,58.1 238.6,58.1 240.7,51.2 227.6,51.2 	"/>
	<path class="st0" d="M128.4,41.3h-3.3V37h3.3c1.2,0,2.2,1,2.2,2.2C130.6,40.3,129.6,41.3,128.4,41.3L128.4,41.3z M111.5,51.7
		L111.5,51.7L111.5,51.7z M111.5,33.1L111.5,33.1L111.5,33.1z M137.9,48.1c3.4-2,5.8-5.7,5.8-9.9c0-6.3-5.1-11.5-11.5-11.5
		c-7.6,0-15.2,0-22.8,0l2,6.1V52l-2,6.1h2h3.1h10.7v-8.5h0l5,8.5H145L137.9,48.1L137.9,48.1z"/>
	<path class="st0" d="M343.9,46.8h8.8V38h-8.8v-2.4H357l-2.7-8.9c-18.5,0-36.9,0-55.4,0l2.1,6.4l0,0v2.4V38v8.9v4.9l0,0l-2.1,6.4
		h2.1h2.9h10.8V46.8h9V38h-9v-2.4h15.3V38v8.9v2.4v2.4l0,0l-2.1,6.4h2.1h2.9h10.8h10.4l2.7-8.9h-13.1V46.8L343.9,46.8z"/>
	<polygon class="st0" points="267.7,26.7 251.8,26.7 254,33.1 254,33.1 254,51.2 254,51.7 254,51.7 251.8,58.1 254,58.1 256.9,58.1 
		267.7,58.1 278.7,58.1 280.8,51.2 267.7,51.2 267.7,26.7 	"/>
	<polygon class="st0" points="280.9,26.7 283,33.1 283,33.1 283,51.7 280.9,58.1 283,58.1 286,58.1 296.8,58.1 296.8,26.7 
		280.9,26.7 	"/>
	<path class="st0" d="M191.4,44.8l1.5-4.9l1.5,4.9H191.4L191.4,44.8z M178.4,49.3h-16.7v-2.4h9V38h-9v-2.4h13.1l-2.7-8.9
		c-8.8,0-17.5,0-26.3,0l2.1,6.4l0,0v2.4V38v8.9v2.4h0v2.4l0,0l-2.1,6.4h2.1h0h2.9h10.8h17.5h8.2l1.4-4.4h8.5l1.4,4.4h11.6l-9.7-31.4
		c-5.9,0-11.8,0-17.6,0l1.3,4v0v0L178.4,49.3L178.4,49.3L178.4,49.3z"/>
	<polygon class="st1" points="0,0 84.9,0 84.9,96.3 0,96.3 0,0 	"/>
	<path class="st0" d="M24.3,38.2h-7.6v-8.4l7.6,3.8V38.2L24.3,38.2z M24.3,62.6l-7.6,3.8V58h7.6V62.6L24.3,62.6z M24.3,16.9V25
		l5,2.5V25l39,19.5v7.3l-39,19.5v-2.9v-2.7v0v-5.6v-2.3V53H11.7v21.5l12.6-6.3l-0.7,11.2l49.6-24.5V41.4L24.3,16.9L24.3,16.9z
		 M29.3,36.1l24,12L32.1,58.7v5.6l32.3-16.2L29.3,30.5v-0.1l-5-2.5v0.1l-12.6-6.3v21.5h17.6V36.1L29.3,36.1z"/>
</g>
</svg>
