<?xml version="1.0" encoding="utf-8"?>
<!-- Generator: Adobe Illustrator 21.0.2, SVG Export Plug-In . SVG Version: 6.00 Build 0)  -->
<svg version="1.1" id="Layer_1" xmlns="http://www.w3.org/2000/svg" xmlns:xlink="http://www.w3.org/1999/xlink" x="0px" y="0px"
	 viewBox="0 0 84.9 96.3" style="enable-background:new 0 0 84.9 96.3;" xml:space="preserve">
<style type="text/css">
	.st0{fill-rule:evenodd;clip-rule:evenodd;fill:#EF4425;}
	.st1{fill-rule:evenodd;clip-rule:evenodd;fill:#FFFFFF;}
</style>
<polygon class="st0" points="0,0 84.9,0 84.9,96.3 0,96.3 0,0 "/>
<path class="st1" d="M24.3,38.2h-7.6v-8.4l7.6,3.8V38.2L24.3,38.2z M24.3,62.6l-7.6,3.8V58h7.6V62.6L24.3,62.6z M24.3,16.9V25l5,2.5
	V25l39,19.5v7.3l-39,19.5v-2.9v-2.7v0v-5.6v-2.3V53H11.7v21.5l12.6-6.3l-0.7,11.2l49.6-24.5V41.4L24.3,16.9L24.3,16.9z M29.3,36.1
	l24,12L32.1,58.7v5.6l32.3-16.2L29.3,30.5v-0.1l-5-2.5v0.1l-12.6-6.3v21.5h17.6V36.1L29.3,36.1z"/>
</svg>
